<?xml version="1.0" encoding="utf-8"?>
<!-- Generator: Adobe Illustrator 22.0.0, SVG Export Plug-In . SVG Version: 6.00 Build 0)  -->
<svg xmlns="http://www.w3.org/2000/svg" xmlns:xlink="http://www.w3.org/1999/xlink" version="1.1" id="Layer_1" x="0px" y="0px" viewBox="0 0 500 500" style="enable-background:new 0 0 500 500;" xml:space="preserve" width="512" height="512">
<style type="text/css">
	.st0{fill:#83E1E5;}
	.st1{fill:#AAB1BA;}
	.st2{fill:#ECF4F7;}
	.st3{fill:#FDDF7F;}
	.st4{fill:#1C1D21;}
	.st5{fill:#FFFFFF;}
</style>
<g>
	<g>
		<path class="st0" d="M478.967,406.644l-60.555-36.333c-10.772-6.464-19.026-16.398-23.407-28.171L352.051,226.7h-52.052    c-28.748,0-52.052-23.305-52.052-52.052v-36.514h-28.335c-4.845,0-9.572,0.988-13.933,2.825    c-1.913,17.506-15.763,31.416-33.246,33.404l-59.666,70.982l215.306,189.975c14.451,12.751,33.061,19.789,52.333,19.789H495    v-20.147C495,423.361,488.914,412.612,478.967,406.644z"/>
	</g>
</g>
<g>
	<g>
		<path class="st1" d="M495,475.306c0,10.877-8.817,19.694-19.694,19.694H365.99c-19.272,0-37.882-7.036-52.333-19.787    L101.223,286.375c-8.469-7.528-8.854-20.633-0.841-28.646l12.384-12.384l215.306,189.975    c14.451,12.751,33.061,19.789,52.333,19.789H495L495,475.306z"/>
	</g>
</g>
<g>
	<g>
		<path class="st3" d="M181.293,284.316c17.359-20.509,14.885-51.19-5.536-68.652l-22.133-18.926l0,0l-40.858,48.607l58.112,51.276    h0L181.293,284.316z"/>
	</g>
</g>
<g>
	<g>
		<path class="st2" d="M205.884,102.026c-0.794-20.178-17.395-36.295-37.768-36.295H5l12.933,19.751    c6.759,10.324,18.267,16.544,30.607,16.544h0.193l12.933,19.751c6.759,10.324,18.267,16.545,30.607,16.545h1.08l12.932,19.751    c6.759,10.323,18.267,16.544,30.607,16.544h31.225c20.373,0,36.974-16.117,37.768-36.295L205.884,102.026z"/>
	</g>
</g>
<path class="st4" d="M298.883,15.833c0-2.762,2.239-5,5-5h5.833V5c0-2.762,2.239-5,5-5s5,2.238,5,5v5.833h5.833c2.761,0,5,2.238,5,5  s-2.239,5-5,5h-5.833v5.833c0,2.762-2.239,5-5,5s-5-2.238-5-5v-5.833h-5.833C301.122,20.833,298.883,18.595,298.883,15.833z   M350.801,70.73h5.833v5.833c0,2.762,2.239,5,5,5s5-2.238,5-5V70.73h5.833c2.761,0,5-2.238,5-5s-2.239-5-5-5h-5.833v-5.833  c0-2.762-2.239-5-5-5s-5,2.238-5,5v5.833h-5.833c-2.761,0-5,2.238-5,5S348.04,70.73,350.801,70.73z M500,434.962v20.147v20.196  C500,488.922,488.922,500,475.306,500H365.99H112.766c-2.761,0-5-2.238-5-5s2.239-5,5-5h213.458  c-5.656-3.036-10.988-6.727-15.875-11.038L97.901,290.112c-5.136-4.565-8.076-10.862-8.277-17.731  c-0.202-6.868,2.363-13.327,7.222-18.187l12.231-12.23l52.406-62.347h-24.592c-14.075,0-27.08-7.03-34.79-18.805L90.628,143.29  c-13.438-0.524-25.738-7.458-33.146-18.774l-11.503-17.568c-13.08-0.796-24.99-7.669-32.23-18.726L0.817,68.47  c-1.006-1.537-1.089-3.501-0.215-5.117C1.475,61.737,3.164,60.73,5,60.73h163.116c23.073,0,41.857,18.053,42.764,41.099  c0.002,0.065,0.004,0.131,0.004,0.196v32.063c2.858-0.628,5.773-0.955,8.727-0.955h28.335c2.761,0,5,2.238,5,5v36.515  c0,25.944,21.107,47.052,47.052,47.052h52.052c2.089,0,3.958,1.299,4.686,3.256l11.907,32h12.697c2.761,0,5,2.238,5,5s-2.239,5-5,5  h-8.976l7.802,20.968h13.162c2.761,0,5,2.238,5,5s-2.239,5-5,5h-9.441l7.802,20.968h13.627c2.761,0,5,2.238,5,5s-2.239,5-5,5h-9.906  l4.281,11.504c3.97,10.668,11.532,19.77,21.294,25.629l60.554,36.332C492.926,409.189,500,421.683,500,434.962z M136.892,169.617  h31.225c1.255,0,2.491-0.077,3.709-0.213c0.014-0.002,0.027-0.007,0.041-0.009c15.064-1.713,27.194-13.9,28.841-28.979  c0.002-0.017,0.007-0.033,0.009-0.05c0.076-0.709,0.137-1.424,0.168-2.146v-36.094c-0.742-17.614-15.117-31.396-32.768-31.396H14.25  l7.866,12.013c5.856,8.943,15.734,14.282,26.424,14.282h0.193h109.342c2.761,0,5,2.238,5,5s-2.239,5-5,5H57.983l7.865,12.013  c5.856,8.944,15.734,14.284,26.424,14.284h1.08h64.723c2.761,0,5,2.238,5,5s-2.239,5-5,5h-55.472l7.865,12.012  C116.324,164.277,126.202,169.617,136.892,169.617z M119.734,244.826l50.625,44.669l7.118-8.409  c15.534-18.353,13.305-45.996-4.969-61.622l-18.301-15.648L119.734,244.826z M490,475.306v-15.196H380.404  c-20.505,0-40.266-7.472-55.641-21.04l-89.692-79.14c-2.071-1.827-2.268-4.986-0.441-7.057c1.826-2.069,4.987-2.268,7.057-0.441  l89.692,79.14c13.547,11.954,30.958,18.538,49.025,18.538H490v-15.147c0-9.787-5.213-18.995-13.606-24.031l-60.554-36.332  c-11.7-7.021-20.764-17.93-25.521-30.715l-5.578-14.992h-18.837c-2.761,0-5-2.238-5-5s2.239-5,5-5h15.116l-7.802-20.968h-19.302  c-2.761,0-5-2.238-5-5s2.239-5,5-5h15.581l-7.802-20.968h-19.767c-2.761,0-5-2.238-5-5s2.239-5,5-5h16.046l-9.398-25.256h-48.578  c-31.458,0-57.052-25.594-57.052-57.052v-31.515h-23.335c-3.207,0-6.36,0.496-9.406,1.476c-3.245,17.812-17.364,31.588-35.19,34.45  l-14.374,17.101l18.365,15.704c22.444,19.191,25.182,53.143,6.103,75.683l-7.25,8.565l26.371,23.269  c2.071,1.827,2.268,4.986,0.441,7.057c-1.826,2.071-4.986,2.27-7.057,0.441l-84.634-74.677l-9.063,9.063  c-2.892,2.892-4.417,6.735-4.297,10.822c0.12,4.088,1.869,7.835,4.925,10.551l212.434,188.838  C330.512,483.417,347.923,490,365.99,490h109.316C483.408,490,490,483.408,490,475.306z M221.057,334.229  c-2.07-1.826-5.23-1.628-7.057,0.44c-1.827,2.071-1.63,5.23,0.441,7.058l2.524,2.228c0.951,0.839,2.131,1.251,3.306,1.251  c1.385,0,2.763-0.572,3.751-1.691c1.827-2.071,1.63-5.23-0.441-7.058L221.057,334.229z M89.9,490h-6.34c-2.761,0-5,2.238-5,5  s2.239,5,5,5h6.34c2.761,0,5-2.238,5-5S92.662,490,89.9,490z"/>
</svg>
